<?xml version="1.0" encoding="iso-8859-1"?><svg version="1.1" id="Capa_1" xmlns="http://www.w3.org/2000/svg" xmlns:xlink="http://www.w3.org/1999/xlink" x="0px" y="0px" viewBox="0 0 508.458 508.458" style="enable-background:new 0 0 508.458 508.458;" xml:space="preserve"><g><g><g><path d="M485.601,190.22l0.079-0.071c-11.635-15.846-29.387-32.247-50.9-33.024c-11.813-0.709-23.412,3.386-32.161,11.355				s-13.906,19.136-14.299,30.964c0.045,8.594,2.749,16.963,7.742,23.958c5.976,6.741,13.298,12.154,21.495,15.89				c38.938,23.093,68.555,67.902,52.966,112.11c0.883-2.586,4.996-5.764,6.788-7.989c2.083-2.578,4.105-5.208,6.038-7.892				c3.743-5.156,7.177-10.53,10.284-16.093c1.766-3.196,3.416-6.471,4.917-9.799c2.537-5.683,4.604-11.564,6.179-17.585				C513.544,256.94,506.554,219.735,485.601,190.22z"/><path d="M105.858,339.986c8.748-7.964,13.908-19.124,14.308-30.947c-0.045-8.594-2.749-16.963-7.742-23.958				c-5.977-6.728-13.3-12.126-21.495-15.846c-38.938-23.093-68.555-67.902-52.966-112.11c-0.883,2.586-4.996,5.764-6.788,7.989				c-2.083,2.578-4.105,5.208-6.038,7.892c-3.753,5.152-7.196,10.522-10.311,16.084c-1.766,3.207-3.407,6.477-4.926,9.807				c-2.532,5.682-4.599,11.56-6.179,17.576c-8.804,35.111-1.812,72.316,19.138,101.835c11.582,15.846,29.352,32.247,50.847,33.024				C85.515,352.042,97.11,347.95,105.858,339.986z"/><path d="M298.465,116.015c8.811-1.817,17.143-5.458,24.461-10.69c39.468-22.193,93.078-25.441,123.569,10.116				c-1.597-3.124-2.784-6.441-3.531-9.869c-1.177-3.101-2.448-6.162-3.813-9.181c-2.608-5.815-5.556-11.471-8.828-16.94				c-1.889-3.143-3.899-6.197-6.029-9.163c-3.647-5.048-7.7-9.79-12.12-14.177c-25.986-25.173-61.682-37.722-97.704-34.348				c-19.544,2.145-42.628,9.331-54.025,27.577c-6.52,9.87-8.776,21.957-6.254,33.514c2.522,11.558,9.607,21.606,19.646,27.864				C281.303,114.984,289.906,116.835,298.465,116.015z"/><path d="M234.651,397.739c-7.466-4.266-16.069-6.116-24.629-5.297c-8.81,1.819-17.142,5.46-24.461,10.69				c-39.468,22.175-93.078,25.423-123.586-10.134c1.597,3.124,2.784,6.441,3.531,9.869c1.177,3.096,2.451,6.156,3.822,9.181				c2.607,5.816,5.554,11.472,8.828,16.94c1.877,3.143,3.884,6.197,6.02,9.163c3.647,5.048,7.7,9.79,12.12,14.177				c25.99,25.186,61.697,37.742,97.73,34.366c19.535-2.145,42.62-9.34,54.016-27.577c6.52-9.87,8.776-21.957,6.254-33.514				C251.775,414.045,244.69,403.996,234.651,397.739z"/><path d="M105.81,168.589c11.27,3.595,23.514,2.486,33.953-3.077c7.422-4.339,13.319-10.871,16.878-18.697				c2.836-8.537,3.849-17.574,2.975-26.527c0.53-45.259,24.523-93.325,70.568-101.95c-3.507-0.173-6.977-0.806-10.319-1.88				c-3.278-0.512-6.562-0.939-9.852-1.28c-6.333-0.668-12.7-0.963-19.068-0.883c-3.66,0.065-7.309,0.28-10.946,0.644				c-6.197,0.629-12.332,1.766-18.344,3.399c-34.81,9.924-63.535,34.582-78.618,67.487v0.018				c-7.945,17.999-13.241,41.578-3.125,60.575C85.201,156.998,94.541,164.994,105.81,168.589z"/><path d="M402.686,339.869c-11.27-3.595-23.514-2.486-33.953,3.077c-7.425,4.339-13.324,10.87-16.887,18.697				c-2.832,8.538-3.846,17.574-2.975,26.527c-0.53,45.268-24.523,93.325-70.559,101.95c3.504,0.174,6.97,0.806,10.311,1.88				c3.272,0.512,6.556,0.939,9.852,1.28c6.336,0.668,12.706,0.963,19.076,0.883c3.655-0.059,7.303-0.274,10.946-0.644				c6.195-0.635,12.327-1.778,18.335-3.416c34.811-9.926,63.538-34.583,78.627-67.487c7.945-17.999,13.241-41.578,3.125-60.575				C423.295,351.459,413.956,343.464,402.686,339.869z"/></g></g></g><g></g><g></g><g></g><g></g><g></g><g></g><g></g><g></g><g></g><g></g><g></g><g></g><g></g><g></g><g></g></svg>